<svg width="40" height="40" viewBox="0 0 40 40" xmlns="http://www.w3.org/2000/svg">
<path d="M17.5783 22.0363C17.3374 22.0363 17.1064 22.1289 16.936 22.2938C16.7656 22.4586 16.6699 22.6822 16.6699 22.9154C16.6699 23.1486 16.7656 23.3722 16.936 23.5371C17.1064 23.7019 17.3374 23.7946 17.5783 23.7946H22.4232C22.6641 23.7946 22.8952 23.7019 23.0656 23.5371C23.2359 23.3722 23.3316 23.1486 23.3316 22.9154C23.3316 22.6822 23.2359 22.4586 23.0656 22.2938C22.8952 22.1289 22.6641 22.0363 22.4232 22.0363H17.5783Z" fill="#645C4F"/>
<path fill-rule="evenodd" clip-rule="evenodd" d="M25.2745 13.7155L26.6429 13.7639C27.1613 13.7898 27.6325 13.8288 28.0601 13.8889C29.3391 14.0671 30.3977 14.4516 31.1499 15.3576C31.9021 16.2648 32.0668 17.3524 31.9784 18.6076C31.8936 19.8238 31.5544 21.3585 31.1329 23.2755L30.5867 25.761C30.302 27.0551 30.0707 28.1038 29.78 28.9225C29.4772 29.7777 29.0775 30.4796 28.3968 31.0164C27.7161 31.5531 26.9264 31.7855 26.0058 31.8952C25.1216 32.0002 24.0194 32.0002 22.6629 32.0002H17.3383C15.9794 32.0002 14.8784 32.0002 13.9942 31.8952C13.0736 31.7855 12.2839 31.5531 11.6032 31.0164C10.9213 30.4796 10.5228 29.7777 10.22 28.9236C9.92931 28.1038 9.69917 27.0551 9.41333 25.7622L8.86707 23.2766C8.44556 21.3585 8.10763 19.8238 8.02163 18.6076C7.93321 17.3524 8.09794 16.2648 8.85011 15.3576C9.60107 14.4516 10.6597 14.0671 11.9387 13.8889C12.3663 13.83 12.8387 13.7898 13.3558 13.7639L16.8042 13.7155H23.197C23.6839 13.7155 24.8336 13.7132 25.2745 13.7155ZM12.4087 15.6124L11.9206 16.5632C11.8662 16.6673 11.8335 16.7808 11.8243 16.8972C11.8152 17.0136 11.8298 17.1307 11.8674 17.2416C11.9049 17.3525 11.9646 17.455 12.0431 17.5433C12.1215 17.6317 12.2171 17.704 12.3244 17.7561C12.4316 17.8083 12.5484 17.8392 12.668 17.8472C12.7876 17.8552 12.9077 17.8401 13.0213 17.8026C13.1348 17.7652 13.2397 17.7063 13.3297 17.6292C13.4198 17.5521 13.4933 17.4585 13.546 17.3536L14.4992 15.4968C15.1896 15.485 15.9769 15.4838 16.8781 15.4838H23.1231C24.0243 15.4838 24.8116 15.4838 25.502 15.4956L26.4552 17.3536C26.5639 17.5616 26.7527 17.7194 26.9803 17.7925C27.208 17.8656 27.4561 17.8481 27.6705 17.7438C27.885 17.6395 28.0485 17.4569 28.1253 17.2358C28.2021 17.0146 28.1861 16.7729 28.0807 16.5632L27.5925 15.6124L27.8033 15.6395C28.874 15.7894 29.3985 16.0619 29.7376 16.4688C30.0707 16.8699 30.2342 17.4161 30.1688 18.433H9.83241C9.767 17.4161 9.93052 16.8699 10.2636 16.4688C10.6027 16.0619 11.1272 15.7894 12.1979 15.6395L12.4087 15.6124ZM10.6597 22.9758C10.4515 22.0546 10.2572 21.1304 10.0771 20.2036H29.9241C29.7433 21.1304 29.5487 22.0546 29.3403 22.9758L28.8219 25.3351C28.5215 26.6976 28.3132 27.6402 28.0625 28.3456C27.8202 29.0298 27.5732 29.3908 27.2546 29.6409C26.9373 29.891 26.5218 30.0514 25.7866 30.1387C25.0247 30.2295 24.034 30.2307 22.6035 30.2307H17.3965C15.9672 30.2307 14.9765 30.2295 14.2146 30.1387C13.4782 30.0514 13.0639 29.891 12.7466 29.6409C12.4281 29.3908 12.1798 29.0286 11.9387 28.3456C11.688 27.6402 11.4785 26.6976 11.1793 25.3351L10.6597 22.9758Z"/>
<path d="M27.2 17.1429C27.2 17.1429 24.8 8.00009 20 8.00009C15.2 8.00009 12.8 17.1429 12.8 17.1429" stroke-width="2" stroke-linecap="round" stroke-linejoin="round"/>
</svg>
