<svg width="40" height="40" viewBox="0 0 40 40" fill="none" xmlns="http://www.w3.org/2000/svg">
<path d="M34.7334 19.9998H37M3 19.9998H5.26664M32.7614 12.7776L34.722 11.6665M5.278 28.3332L7.24436 27.222M32.7614 27.222L34.722 28.3332M5.278 11.6665L7.24436 12.7776" stroke="url(#paint0_linear_24_2003)" stroke-width="2" stroke-miterlimit="10" stroke-linecap="round" stroke-linejoin="round"/>
<path d="M20 30C25.6334 30 30.2001 25.5228 30.2001 20C30.2001 14.4772 25.6334 10 20 10C14.3667 10 9.80005 14.4772 9.80005 20C9.80005 25.5228 14.3667 30 20 30Z" stroke="url(#paint1_linear_24_2003)" stroke-width="2" stroke-miterlimit="10" stroke-linecap="round" stroke-linejoin="round"/>
<path d="M21.7001 16.1113H19.1501C18.0565 16.1113 17.1667 16.9813 17.1667 18.0547V18.0558C17.1667 19.1296 18.0565 20.0002 19.1501 20.0002H20.8557C21.3771 20.0002 21.8815 20.2052 22.2554 20.5697C22.6294 20.9341 22.8334 21.428 22.8334 21.9435V21.9446C22.8334 22.4602 22.6294 22.9552 22.2554 23.3196C21.8821 23.6841 21.3769 23.8888 20.85 23.889H18.3M20.0001 26.1113V23.889M20.0001 16.1113V13.889" stroke="url(#paint2_linear_24_2003)" stroke-width="2" stroke-miterlimit="10" stroke-linecap="round" stroke-linejoin="round"/>
<defs>
<linearGradient id="paint0_linear_24_2003" x1="2.08878" y1="14.2955" x2="37.5065" y2="17.2972" gradientUnits="userSpaceOnUse">
<stop stop-color="#C09E6C"/>
<stop offset="0.426246" stop-color="#FFEBCC"/>
<stop offset="1" stop-color="#BF936B"/>
</linearGradient>
<linearGradient id="paint1_linear_24_2003" x1="9.25332" y1="13.1548" x2="30.6182" y2="14.0601" gradientUnits="userSpaceOnUse">
<stop stop-color="#C09E6C"/>
<stop offset="0.426246" stop-color="#FFEBCC"/>
<stop offset="1" stop-color="#BF936B"/>
</linearGradient>
<linearGradient id="paint2_linear_24_2003" x1="17.0149" y1="15.817" x2="22.958" y2="15.9314" gradientUnits="userSpaceOnUse">
<stop stop-color="#C09E6C"/>
<stop offset="0.426246" stop-color="#FFEBCC"/>
<stop offset="1" stop-color="#BF936B"/>
</linearGradient>
</defs>
</svg>
