<svg width="40" height="40" viewBox="0 0 40 40" fill="none" xmlns="http://www.w3.org/2000/svg">
<path d="M12 30H26C26.5304 30 27.0391 29.7893 27.4142 29.4142C27.7893 29.0391 28 28.5304 28 28V15.5L22.5 10H14C13.4696 10 12.9609 10.2107 12.5858 10.5858C12.2107 10.9609 12 11.4696 12 12V15" stroke="url(#paint0_linear_24_1994)" stroke-width="2" stroke-linecap="round" stroke-linejoin="round"/>
<path d="M22 10V16H28" stroke="url(#paint1_linear_24_1994)" stroke-width="2" stroke-linecap="round" stroke-linejoin="round"/>
<path d="M13 25C13.394 25 13.7841 24.9224 14.1481 24.7716C14.512 24.6209 14.8427 24.3999 15.1213 24.1213C15.3999 23.8427 15.6209 23.512 15.7716 23.1481C15.9224 22.7841 16 22.394 16 22C16 21.606 15.9224 21.2159 15.7716 20.8519C15.6209 20.488 15.3999 20.1573 15.1213 19.8787C14.8427 19.6001 14.512 19.3791 14.1481 19.2284C13.7841 19.0776 13.394 19 13 19C12.2044 19 11.4413 19.3161 10.8787 19.8787C10.3161 20.4413 10 21.2044 10 22C10 22.7956 10.3161 23.5587 10.8787 24.1213C11.4413 24.6839 12.2044 25 13 25Z" stroke="url(#paint2_linear_24_1994)" stroke-width="2" stroke-linecap="round" stroke-linejoin="round"/>
<path d="M17 26L15.5 24.5" stroke="url(#paint3_linear_24_1994)" stroke-width="2" stroke-linecap="round" stroke-linejoin="round"/>
<defs>
<linearGradient id="paint0_linear_24_1994" x1="11.5712" y1="13.1548" x2="28.3396" y2="13.7121" gradientUnits="userSpaceOnUse">
<stop stop-color="#C09E6C"/>
<stop offset="0.426246" stop-color="#FFEBCC"/>
<stop offset="1" stop-color="#BF936B"/>
</linearGradient>
<linearGradient id="paint1_linear_24_1994" x1="21.8392" y1="10.9464" x2="28.1234" y2="11.2075" gradientUnits="userSpaceOnUse">
<stop stop-color="#C09E6C"/>
<stop offset="0.426246" stop-color="#FFEBCC"/>
<stop offset="1" stop-color="#BF936B"/>
</linearGradient>
<linearGradient id="paint2_linear_24_1994" x1="9.8392" y1="19.9464" x2="16.1234" y2="20.2075" gradientUnits="userSpaceOnUse">
<stop stop-color="#C09E6C"/>
<stop offset="0.426246" stop-color="#FFEBCC"/>
<stop offset="1" stop-color="#BF936B"/>
</linearGradient>
<linearGradient id="paint3_linear_24_1994" x1="15.4598" y1="24.7366" x2="17.0309" y2="24.8019" gradientUnits="userSpaceOnUse">
<stop stop-color="#C09E6C"/>
<stop offset="0.426246" stop-color="#FFEBCC"/>
<stop offset="1" stop-color="#BF936B"/>
</linearGradient>
</defs>
</svg>
