<svg width="40" height="40" viewBox="0 0 40 40" xmlns="http://www.w3.org/2000/svg">
<path d="M27.7064 8H12.2936C9.92609 8 8 9.92609 8 12.2936V27.7065C8 30.0739 9.92609 32 12.2936 32H27.7065C30.0739 32 32 30.0739 32 27.7064V12.2936C32 9.92609 30.0739 8 27.7064 8ZM30.5938 27.7064C30.5938 29.2985 29.2985 30.5938 27.7064 30.5938H12.2936C10.7015 30.5938 9.40625 29.2985 9.40625 27.7064V12.2936C9.40625 10.7015 10.7015 9.40625 12.2936 9.40625H27.7065C29.2985 9.40625 30.5938 10.7015 30.5938 12.2936V27.7064Z" fill="#645C4F"/>
<path d="M28.2844 13.2717H17.5753C17.2809 12.3973 16.4538 11.7655 15.4813 11.7655C14.5088 11.7655 13.6817 12.3973 13.3873 13.2717H11.7157C11.3274 13.2717 11.0126 13.5866 11.0126 13.9749C11.0126 14.3632 11.3274 14.678 11.7157 14.678H13.3874C13.6818 15.5524 14.5089 16.1842 15.4814 16.1842C16.4538 16.1842 17.2809 15.5524 17.5754 14.678H28.2845C28.6728 14.678 28.9876 14.3632 28.9876 13.9749C28.9876 13.5866 28.6728 13.2717 28.2844 13.2717ZM15.4813 14.778C15.0385 14.778 14.6782 14.4177 14.6782 13.9749C14.6782 13.532 15.0385 13.1718 15.4813 13.1718C15.9241 13.1718 16.2844 13.532 16.2844 13.9749C16.2844 14.4177 15.9241 14.778 15.4813 14.778ZM28.2844 19.2967H26.6128C26.3183 18.4223 25.4912 17.7905 24.5188 17.7905C23.5463 17.7905 22.7192 18.4223 22.4248 19.2967H11.7157C11.3274 19.2967 11.0126 19.6115 11.0126 19.9998C11.0126 20.3882 11.3274 20.703 11.7157 20.703H22.4248C22.7192 21.5774 23.5464 22.2092 24.5188 22.2092C25.4912 22.2092 26.3184 21.5774 26.6128 20.703H28.2845C28.6728 20.703 28.9876 20.3882 28.9876 19.9998C28.9876 19.6115 28.6728 19.2967 28.2844 19.2967ZM24.5188 20.803C24.076 20.803 23.7157 20.4427 23.7157 19.9998C23.7157 19.557 24.076 19.1967 24.5188 19.1967C24.9616 19.1967 25.3219 19.557 25.3219 19.9998C25.3219 20.4427 24.9616 20.803 24.5188 20.803ZM28.2844 25.3217H20.5878C20.2934 24.4473 19.4663 23.8155 18.4938 23.8155C17.5214 23.8155 16.6942 24.4473 16.3998 25.3217H11.7157C11.3274 25.3217 11.0126 25.6365 11.0126 26.0248C11.0126 26.4131 11.3274 26.728 11.7157 26.728H16.3998C16.6942 27.6024 17.5214 28.2342 18.4938 28.2342C19.4663 28.2342 20.2934 27.6024 20.5878 26.728H28.2845C28.6728 26.728 28.9876 26.4131 28.9876 26.0248C28.9876 25.6365 28.6728 25.3217 28.2844 25.3217ZM18.4938 26.828C18.051 26.828 17.6907 26.4677 17.6907 26.0249C17.6907 25.5821 18.051 25.2218 18.4938 25.2218C18.9367 25.2218 19.2969 25.582 19.2969 26.0248C19.2969 26.4677 18.9367 26.828 18.4938 26.828Z"/>
</svg>
