<svg width="22" height="26" viewBox="0 0 22 26" fill="none" xmlns="http://www.w3.org/2000/svg">
<path d="M20.5438 11.7049L2.91347 0.879382C2.43217 0.583711 1.79881 0.570913 1.30602 0.846933C1.05948 0.985016 0.854179 1.18628 0.711228 1.43003C0.568276 1.67378 0.492839 1.95121 0.492676 2.23378V23.7994C0.492872 24.0816 0.568057 24.3586 0.710533 24.6021C0.853008 24.8456 1.05765 25.0469 1.3035 25.1853C1.54133 25.3186 1.80935 25.3886 2.08198 25.3888C2.37392 25.3888 2.65982 25.3085 2.90883 25.1568L20.5389 14.4167C21.0083 14.1309 21.3004 13.6119 21.3013 13.0623C21.3023 12.5127 21.0121 11.9925 20.5438 11.7049Z" fill="url(#paint0_linear_4214_15313)"/>
<defs>
<linearGradient id="paint0_linear_4214_15313" x1="-0.0650095" y1="4.55094" x2="21.7404" y2="5.31289" gradientUnits="userSpaceOnUse">
<stop stop-color="#C09E6C"/>
<stop offset="0.426246" stop-color="#FFEBCC"/>
<stop offset="1" stop-color="#BF936B"/>
</linearGradient>
</defs>
</svg>
