<svg width="40" height="40" viewBox="0 0 40 40" fill="none" xmlns="http://www.w3.org/2000/svg">
<path d="M34.7334 19.9974H37M3 19.9974H5.26664M32.7614 12.7752L34.722 11.6641M5.278 28.3307L7.24436 27.2196M32.7614 27.2196L34.722 28.3307M5.278 11.6641L7.24436 12.7752" stroke="url(#paint0_linear_4532_7480)" stroke-width="2" stroke-miterlimit="10" stroke-linecap="round" stroke-linejoin="round"/>
<path d="M20 30C25.6334 30 30.2001 25.5228 30.2001 20C30.2001 14.4772 25.6334 10 20 10C14.3667 10 9.80005 14.4772 9.80005 20C9.80005 25.5228 14.3667 30 20 30Z" stroke="url(#paint1_linear_4532_7480)" stroke-width="2" stroke-miterlimit="10" stroke-linecap="round" stroke-linejoin="round"/>
<path d="M21.7 16.1129H19.15C18.0564 16.1129 17.1667 16.9829 17.1667 18.0563V18.0574C17.1667 19.1312 18.0564 20.0018 19.15 20.0018H20.8557C21.377 20.0018 21.8814 20.2068 22.2553 20.5713C22.6293 20.9357 22.8333 21.4296 22.8333 21.9451V21.9462C22.8333 22.4618 22.6293 22.9568 22.2553 23.3212C21.8821 23.6857 21.3768 23.8904 20.85 23.8906H18.3M20 26.1129V23.8906M20 16.1129V13.8906" stroke="url(#paint2_linear_4532_7480)" stroke-width="2" stroke-miterlimit="10" stroke-linecap="round" stroke-linejoin="round"/>
<defs>
<linearGradient id="paint0_linear_4532_7480" x1="2.08878" y1="14.293" x2="37.5065" y2="17.2948" gradientUnits="userSpaceOnUse">
<stop stop-color="#C09E6C"/>
<stop offset="0.426246" stop-color="#FFEBCC"/>
<stop offset="1" stop-color="#BF936B"/>
</linearGradient>
<linearGradient id="paint1_linear_4532_7480" x1="9.25332" y1="13.1548" x2="30.6182" y2="14.0601" gradientUnits="userSpaceOnUse">
<stop stop-color="#C09E6C"/>
<stop offset="0.426246" stop-color="#FFEBCC"/>
<stop offset="1" stop-color="#BF936B"/>
</linearGradient>
<linearGradient id="paint2_linear_4532_7480" x1="17.0148" y1="15.8185" x2="22.9579" y2="15.933" gradientUnits="userSpaceOnUse">
<stop stop-color="#C09E6C"/>
<stop offset="0.426246" stop-color="#FFEBCC"/>
<stop offset="1" stop-color="#BF936B"/>
</linearGradient>
</defs>
</svg>
